<?xml version="1.0" standalone="no"?><!DOCTYPE svg PUBLIC "-//W3C//DTD SVG 1.1//EN" "http://www.w3.org/Graphics/SVG/1.1/DTD/svg11.dtd"><svg t="1723902302655" class="icon" viewBox="0 0 1024 1024" version="1.1" xmlns="http://www.w3.org/2000/svg" p-id="7222" xmlns:xlink="http://www.w3.org/1999/xlink" width="128" height="128"><path d="M512 80L137.6 294.4v432L512 944l374.4-217.6v-432L512 80z m25.6 793.6v-176c-6.4 0-16 3.2-25.6 3.2s-16 0-25.6-3.2v176l-300.8-176V348.8l153.6 89.6c6.4-16 16-28.8 25.6-41.6l-153.6-86.4 300.8-176 300.8 176L659.2 400c9.6 12.8 19.2 25.6 25.6 41.6L838.4 352v348.8L537.6 873.6z" p-id="7223" fill="#409eff"></path><path d="M384 512a128 128 0 1 0 256 0 128 128 0 1 0-256 0z" p-id="7224" fill="#409eff"></path></svg>